
<svg xmlns="http://www.w3.org/2000/svg" viewBox="0 0 512 512" width="512" height="512">
  <defs>
    <linearGradient id="adminGrad" x1="0%" y1="0%" x2="100%" y2="100%">
      <stop offset="0%" stop-color="#090d16" />
      <stop offset="50%" stop-color="#0f172a" />
      <stop offset="100%" stop-color="#1e1b4b" />
    </linearGradient>
    <linearGradient id="adminSteel" x1="0%" y1="0%" x2="100%" y2="100%">
      <stop offset="0%" stop-color="#ffffff" />
      <stop offset="50%" stop-color="#cbd5e1" />
      <stop offset="100%" stop-color="#64748b" />
    </linearGradient>
    <linearGradient id="shieldGrad" x1="0%" y1="0%" x2="100%" y2="100%">
      <stop offset="0%" stop-color="#0284c7" />
      <stop offset="100%" stop-color="#0369a1" />
    </linearGradient>
  </defs>
  <rect width="512" height="512" rx="100" fill="url(#adminGrad)"/>
  <rect x="12" y="12" width="488" height="488" rx="88" fill="none" stroke="#0284c7" stroke-width="4" opacity="0.5"/>

  <!-- Admin Shield & Geometric Emblem -->
  <path d="M256 100 L370 150 V260 C370 335 256 395 256 395 C256 395 142 335 142 260 V150 Z" fill="none" stroke="url(#adminSteel)" stroke-width="14" stroke-linejoin="round"/>
  <path d="M256 130 L345 170 V255 C345 315 256 365 256 365 C256 365 167 315 167 255 V170 Z" fill="url(#shieldGrad)" opacity="0.3"/>

  <!-- Center Key / Lock / Controls Motif -->
  <circle cx="256" cy="225" r="30" fill="none" stroke="#f8fafc" stroke-width="10"/>
  <path d="M256 255 L256 295" stroke="#f8fafc" stroke-width="10" stroke-linecap="round"/>
  <circle cx="256" cy="225" r="10" fill="#38bdf8"/>

  <text x="256" y="440" font-family="system-ui, -apple-system, sans-serif" font-size="40" font-weight="800" fill="#f8fafc" letter-spacing="6" text-anchor="middle">SKF</text>
  <text x="256" y="470" font-family="system-ui, -apple-system, sans-serif" font-size="16" font-weight="700" fill="#38bdf8" letter-spacing="6" text-anchor="middle">ADMIN PORTAL</text>
</svg>
